<svg width="54" height="54" viewBox="0 0 54 54" fill="none" xmlns="http://www.w3.org/2000/svg">
<g id="Group">
<path id="Vector" d="M27 4.5C32.3706 4.5 37.5213 6.63348 41.3189 10.4311C45.1165 14.2287 47.25 19.3794 47.25 24.75C47.25 31.6665 43.479 37.3275 39.5055 41.3888C37.5199 43.3955 35.3538 45.2152 33.0345 46.8248L32.076 47.4772L31.626 47.7765L30.7777 48.3165L30.0218 48.7778L29.0858 49.3222C28.4501 49.684 27.7314 49.8743 27 49.8743C26.2686 49.8743 25.5499 49.684 24.9142 49.3222L23.9782 48.7778L22.8083 48.0577L22.3762 47.7765L21.4537 47.1623C18.9517 45.4687 16.6209 43.5351 14.4945 41.3888C10.521 37.323 6.75 31.6665 6.75 24.75C6.75 19.3794 8.88348 14.2287 12.6811 10.4311C16.4787 6.63348 21.6294 4.5 27 4.5ZM27 18C26.1136 18 25.2358 18.1746 24.4169 18.5138C23.5979 18.853 22.8538 19.3502 22.227 19.977C21.6002 20.6038 21.103 21.3479 20.7638 22.1669C20.4246 22.9858 20.25 23.8636 20.25 24.75C20.25 25.6364 20.4246 26.5142 20.7638 27.3331C21.103 28.1521 21.6002 28.8962 22.227 29.523C22.8538 30.1498 23.5979 30.647 24.4169 30.9862C25.2358 31.3254 26.1136 31.5 27 31.5C28.7902 31.5 30.5071 30.7888 31.773 29.523C33.0388 28.2571 33.75 26.5402 33.75 24.75C33.75 22.9598 33.0388 21.2429 31.773 19.977C30.5071 18.7112 28.7902 18 27 18Z" fill="#FF0202"/>
</g>
</svg>
