<svg width="18" height="16" viewBox="0 0 18 16" fill="none" xmlns="http://www.w3.org/2000/svg">
<path id="Vector" d="M17 5.64256C17.0027 6.86121 16.5285 8.03353 15.6768 8.91341C13.724 10.9179 12.7114 11.7182 10.6866 13.6491C10.2218 14.0846 8.60309 15.3585 8.15908 14.9031L2.32302 8.9142C0.558995 7.10375 0.558995 4.18136 2.32302 2.3717C2.73993 1.93849 3.24138 1.5936 3.79694 1.35795C4.35251 1.1223 4.95064 1.00079 5.55505 1.00079C6.15947 1.00079 6.75759 1.1223 7.31316 1.35795C7.86873 1.5936 8.37017 1.93849 8.78709 2.3717L8.99989 2.5887L9.2119 2.3717C9.62966 1.93952 10.1312 1.59526 10.6866 1.35956C11.242 1.12386 11.8397 1.00156 12.4439 1C13.6599 1 14.8224 1.49419 15.676 2.3717C16.528 3.25146 17.0025 4.4238 17 5.64256Z" fill="#FF0202" stroke="#08080A" stroke-width="1.5" stroke-linejoin="round"/>
</svg>
