<svg width="225" height="227" viewBox="0 0 225 227" fill="none" xmlns="http://www.w3.org/2000/svg">
<g id="wpf:qrcode" clip-path="url(#clip0_223_2310)">
<path id="Vector" d="M0 0V78.5769H77.8846V0H0ZM95.1923 0V17.4615H112.5V0H95.1923ZM112.5 17.4615V34.9231H95.1923V69.8462H112.5V52.3846H129.808V17.4615H112.5ZM112.5 69.8462V96.0385H34.6154V113.5H17.3077V130.962H51.9231V113.5H69.2308V130.962H112.5V113.5H129.808V130.962H155.769V113.5H173.077V96.0385H129.808V69.8462H112.5ZM173.077 113.5V130.962H225V113.5H207.692V96.0385H190.385V113.5H173.077ZM17.3077 113.5V96.0385H0V113.5H17.3077ZM147.115 0V78.5769H225V0H147.115ZM17.3077 17.4615H60.5769V61.1154H17.3077V17.4615ZM164.423 17.4615H207.692V61.1154H164.423V17.4615ZM25.9615 26.1923V52.3846H51.9231V26.1923H25.9615ZM173.077 26.1923V52.3846H199.038V26.1923H173.077ZM95.1923 139.692V157.154H112.5V139.692H95.1923ZM112.5 157.154V174.615H95.1923V209.538H112.5V192.077H147.115V174.615H164.423V157.154H181.731V174.615H164.423V192.077H147.115V227H164.423V209.538H181.731V192.077H190.385V209.538H181.731V227H199.038V209.538H207.692V192.077H225V157.154H207.692V139.692H147.115V157.154H112.5ZM207.692 209.538V227H225V209.538H207.692ZM112.5 209.538V227H129.808V209.538H112.5ZM0 148.423V227H77.8846V148.423H0ZM17.3077 165.885H60.5769V209.538H17.3077V165.885ZM25.9615 174.615V200.808H51.9231V174.615H25.9615Z" fill="#08080A"/>
</g>
<defs>
<clipPath id="clip0_223_2310">
<rect width="225" height="227" fill="white"/>
</clipPath>
</defs>
</svg>
